<svg width="63" height="68" viewBox="0 0 63 68" fill="none" xmlns="http://www.w3.org/2000/svg">
<path d="M18.8213 48.1667C20.16 48.1667 21.3937 47.345 21.9712 46.07L25.6987 38.0233C26.0662 37.23 26.25 36.38 26.25 35.5017V22.6667C26.25 21.1083 25.0688 19.8333 23.625 19.8333H13.125C11.6812 19.8333 10.5 21.1083 10.5 22.6667V34C10.5 35.5583 11.6812 36.8333 13.125 36.8333H18.375L15.6712 42.67C14.49 45.1917 16.1963 48.1667 18.8213 48.1667ZM45.0713 48.1667C46.41 48.1667 47.6438 47.345 48.2213 46.07L51.9488 38.0233C52.3163 37.23 52.5 36.38 52.5 35.5017V22.6667C52.5 21.1083 51.3188 19.8333 49.875 19.8333H39.375C37.9312 19.8333 36.75 21.1083 36.75 22.6667V34C36.75 35.5583 37.9312 36.8333 39.375 36.8333H44.625L41.9213 42.67C40.74 45.1917 42.4463 48.1667 45.0713 48.1667Z" fill="#1ABC9C"/>
</svg>
