<svg width="61" height="68" viewBox="0 0 61 68" fill="none" xmlns="http://www.w3.org/2000/svg">
<path d="M42.7764 19.8333C41.4802 19.8333 40.2856 20.655 39.7264 21.93L36.1172 29.9767C35.7614 30.77 35.5835 31.62 35.5835 32.4983V45.3333C35.5835 46.8917 36.7272 48.1667 38.1252 48.1667H48.2918C49.6897 48.1667 50.8335 46.8917 50.8335 45.3333V34C50.8335 32.4417 49.6897 31.1667 48.2918 31.1667H43.2085L45.8264 25.33C46.9702 22.8083 45.3181 19.8333 42.7764 19.8333ZM17.3597 19.8333C16.0635 19.8333 14.8689 20.655 14.3097 21.93L10.7006 29.9767C10.3447 30.77 10.1668 31.62 10.1668 32.4983V45.3333C10.1668 46.8917 11.3106 48.1667 12.7085 48.1667H22.8752C24.2731 48.1667 25.4168 46.8917 25.4168 45.3333L25.4168 34C25.4168 32.4417 24.2731 31.1667 22.8752 31.1667H17.7918L20.4097 25.33C21.5535 22.8083 19.9014 19.8333 17.3597 19.8333Z" fill="#1ABC9C"/>
</svg>
